<svg xmlns="http://www.w3.org/2000/svg" viewBox="0 0 314 243" width="314" height="243">
	<style>
		tspan { white-space:pre }
		.shp0 { fill: #dfeaef } 
		.shp1 { fill: #093f68 } 
		.shp2 { fill: #ffffff } 
		.shp3 { fill: #ffc9b0 } 
		.shp4 { fill: #d7850d } 
		.shp5 { fill: #725858 } 
		.shp6 { fill: #ad7972 } 
		.shp7 { fill: #ffbc0e } 
		.shp8 { fill: #70cc40 } 
	</style>
	<g id="_01_analysis_outline">
		<path id="Layer" class="shp0" d="M273 230.57L47 230.57C46.73 230.57 46.48 230.46 46.29 230.28C46.11 230.09 46 229.84 46 229.57C46 229.3 46.11 229.05 46.29 228.86C46.48 228.68 46.73 228.57 47 228.57L273 228.57C273.27 228.57 273.52 228.68 273.71 228.86C273.89 229.05 274 229.3 274 229.57C274 229.84 273.89 230.09 273.71 230.28C273.52 230.46 273.27 230.57 273 230.57Z" />
		<path id="Layer" class="shp1" d="M210.09 223.53C209.96 223.53 209.83 223.5 209.71 223.45C209.59 223.4 209.48 223.33 209.38 223.24C209.29 223.14 209.22 223.03 209.17 222.91C209.12 222.79 209.09 222.66 209.09 222.53L209.09 69.53C209.09 69.26 209.2 69.01 209.38 68.82C209.57 68.64 209.82 68.53 210.09 68.53C210.36 68.53 210.61 68.64 210.8 68.82C210.98 69.01 211.09 69.26 211.09 69.53L211.09 222.53C211.09 222.66 211.06 222.79 211.01 222.91C210.96 223.03 210.89 223.14 210.8 223.24C210.7 223.33 210.59 223.4 210.47 223.45C210.35 223.5 210.22 223.53 210.09 223.53Z" />
		<path id="Layer" class="shp1" d="M229.85 237.61C229.8 237.61 229.75 237.61 229.7 237.6C229.64 237.59 229.59 237.58 229.55 237.56C229.5 237.54 229.45 237.52 229.4 237.5C229.36 237.48 229.31 237.45 229.27 237.42L210.09 223.75L190.9 237.42C190.79 237.5 190.67 237.55 190.55 237.58C190.42 237.61 190.29 237.61 190.16 237.59C190.03 237.57 189.91 237.52 189.79 237.45C189.68 237.39 189.59 237.3 189.51 237.19C189.43 237.08 189.38 236.96 189.35 236.83C189.32 236.71 189.31 236.57 189.33 236.44C189.36 236.31 189.4 236.19 189.47 236.08C189.54 235.96 189.63 235.87 189.74 235.79L209.51 221.71C209.59 221.65 209.69 221.6 209.79 221.57C209.88 221.54 209.99 221.52 210.09 221.52C210.19 221.52 210.3 221.54 210.39 221.57C210.49 221.6 210.59 221.65 210.67 221.71L230.43 235.79C230.54 235.87 230.63 235.96 230.7 236.07C230.77 236.19 230.82 236.31 230.84 236.44C230.86 236.57 230.86 236.7 230.83 236.83C230.8 236.96 230.75 237.08 230.67 237.19C230.62 237.26 230.57 237.31 230.51 237.37C230.45 237.42 230.38 237.46 230.31 237.5C230.24 237.54 230.16 237.56 230.09 237.58C230.01 237.6 229.93 237.61 229.85 237.61Z" />
		<path id="Layer" class="shp2" d="M162.32 73.76L261.78 73.76C264.27 73.76 266.28 75.77 266.28 78.26L266.28 152.8C266.28 155.29 264.27 157.3 261.78 157.3L162.32 157.3C159.83 157.3 157.82 155.29 157.82 152.8L157.82 78.26C157.82 75.77 159.83 73.76 162.32 73.76Z" />
		<path id="Layer" fill-rule="evenodd" class="shp1" d="M162.31 158.3C161.59 158.3 160.87 158.16 160.21 157.88C159.54 157.6 158.94 157.2 158.43 156.69C157.92 156.17 157.51 155.57 157.24 154.9C156.96 154.24 156.82 153.52 156.82 152.8L156.82 78.25C156.82 77.53 156.96 76.82 157.24 76.15C157.51 75.48 157.92 74.88 158.43 74.37C158.94 73.86 159.54 73.45 160.21 73.18C160.88 72.9 161.59 72.76 162.31 72.76L261.78 72.76C262.5 72.76 263.22 72.9 263.88 73.18C264.55 73.45 265.15 73.86 265.67 74.37C266.18 74.88 266.58 75.48 266.86 76.15C267.14 76.81 267.28 77.53 267.28 78.25L267.28 152.8C267.28 153.52 267.14 154.24 266.86 154.9C266.58 155.57 266.18 156.18 265.67 156.69C265.16 157.2 264.55 157.6 263.88 157.88C263.22 158.16 262.5 158.3 261.78 158.3L162.31 158.3ZM162.31 74.76C161.85 74.76 161.4 74.85 160.97 75.03C160.55 75.2 160.17 75.46 159.84 75.78C159.52 76.11 159.26 76.49 159.09 76.91C158.91 77.34 158.82 77.79 158.82 78.25L158.82 152.8C158.82 153.26 158.91 153.71 159.09 154.14C159.26 154.56 159.52 154.95 159.84 155.27C160.17 155.6 160.55 155.85 160.97 156.03C161.4 156.21 161.85 156.3 162.31 156.3L261.78 156.3C262.24 156.3 262.69 156.21 263.12 156.03C263.54 155.86 263.93 155.6 264.25 155.27C264.58 154.95 264.84 154.56 265.01 154.14C265.19 153.71 265.28 153.26 265.28 152.8L265.28 78.25C265.28 77.79 265.19 77.34 265.01 76.91C264.83 76.49 264.58 76.11 264.25 75.78C263.93 75.46 263.54 75.2 263.12 75.03C262.69 74.85 262.24 74.76 261.78 74.76L162.31 74.76Z" />
		<path id="Layer" fill-rule="evenodd" class="shp0" d="M185.62 145.27L176.52 145.27C176.39 145.27 176.26 145.24 176.14 145.19C176.02 145.14 175.91 145.07 175.81 144.98C175.72 144.88 175.65 144.77 175.6 144.65C175.55 144.53 175.52 144.4 175.52 144.27L175.52 124.37C175.52 124.24 175.55 124.11 175.6 123.99C175.65 123.87 175.72 123.76 175.81 123.66C175.91 123.57 176.02 123.5 176.14 123.45C176.26 123.4 176.39 123.37 176.52 123.37L185.62 123.37C185.75 123.37 185.88 123.4 186 123.45C186.12 123.5 186.23 123.57 186.33 123.66C186.42 123.76 186.49 123.87 186.54 123.99C186.59 124.11 186.62 124.24 186.62 124.37L186.62 144.27C186.62 144.4 186.59 144.53 186.54 144.65C186.49 144.77 186.42 144.88 186.33 144.98C186.23 145.07 186.12 145.14 186 145.19C185.88 145.24 185.75 145.27 185.62 145.27ZM177.52 143.27L184.62 143.27L184.62 125.37L177.52 125.37L177.52 143.27Z" />
		<path id="Layer" fill-rule="evenodd" class="shp0" d="M194.43 145.27C194.3 145.27 194.17 145.24 194.05 145.19C193.93 145.14 193.82 145.07 193.72 144.98C193.63 144.88 193.56 144.77 193.51 144.65C193.46 144.53 193.43 144.4 193.43 144.27L193.43 111.91C193.43 111.78 193.46 111.65 193.51 111.53C193.56 111.41 193.63 111.3 193.72 111.2C193.82 111.11 193.93 111.04 194.05 110.99C194.17 110.94 194.3 110.91 194.43 110.91L203.53 110.91C203.66 110.91 203.79 110.94 203.91 110.99C204.03 111.04 204.14 111.11 204.24 111.2C204.33 111.3 204.4 111.41 204.45 111.53C204.5 111.65 204.53 111.78 204.53 111.91L204.53 144.27C204.53 144.4 204.5 144.53 204.45 144.65C204.4 144.77 204.33 144.88 204.24 144.98C204.14 145.07 204.03 145.14 203.91 145.19C203.79 145.24 203.66 145.27 203.53 145.27L194.43 145.27ZM195.43 143.27L202.53 143.27L202.53 112.91L195.43 112.91L195.43 143.27Z" />
		<path id="Layer" fill-rule="evenodd" class="shp0" d="M212.34 145.27C212.21 145.27 212.08 145.24 211.96 145.19C211.84 145.14 211.73 145.07 211.63 144.98C211.54 144.88 211.47 144.77 211.42 144.65C211.37 144.53 211.34 144.4 211.34 144.27L211.34 101.63C211.34 101.5 211.37 101.37 211.42 101.25C211.47 101.13 211.54 101.02 211.63 100.92C211.73 100.83 211.84 100.76 211.96 100.71C212.08 100.66 212.21 100.63 212.34 100.63L221.44 100.63C221.57 100.63 221.7 100.66 221.82 100.71C221.94 100.76 222.05 100.83 222.15 100.92C222.24 101.02 222.31 101.13 222.36 101.25C222.41 101.37 222.44 101.5 222.44 101.63L222.44 144.27C222.44 144.4 222.41 144.53 222.36 144.65C222.31 144.77 222.24 144.88 222.15 144.98C222.05 145.07 221.94 145.14 221.82 145.19C221.7 145.24 221.57 145.27 221.44 145.27L212.34 145.27ZM213.34 143.27L220.44 143.27L220.44 102.63L213.34 102.63L213.34 143.27Z" />
		<path id="Layer" class="shp0" d="M230.15 145.27L170.29 145.27C170.02 145.27 169.77 145.16 169.58 144.98C169.4 144.79 169.29 144.54 169.29 144.27C169.29 144 169.4 143.75 169.58 143.56C169.77 143.38 170.02 143.27 170.29 143.27L230.15 143.27C230.42 143.27 230.67 143.38 230.86 143.56C231.04 143.75 231.15 144 231.15 144.27C231.15 144.54 231.04 144.79 230.86 144.98C230.67 145.16 230.42 145.27 230.15 145.27Z" />
		<path id="Layer" class="shp0" d="M228.22 85L169.74 85C169.47 85 169.22 84.89 169.03 84.71C168.85 84.52 168.74 84.27 168.74 84C168.74 83.73 168.85 83.48 169.03 83.29C169.22 83.11 169.47 83 169.74 83L228.22 83C228.49 83 228.74 83.11 228.93 83.29C229.11 83.48 229.22 83.73 229.22 84C229.22 84.27 229.11 84.52 228.93 84.71C228.74 84.89 228.49 85 228.22 85Z" />
		<path id="Layer" fill-rule="evenodd" class="shp0" d="M228.84 130.2C226.19 123.79 227.66 116.42 232.56 111.52C237.47 106.62 244.84 105.15 251.25 107.81C257.65 110.46 261.82 116.72 261.82 123.65C261.82 125.9 261.37 128.13 260.51 130.2C259.65 132.28 258.38 134.17 256.79 135.76C255.2 137.35 253.31 138.61 251.24 139.47C249.16 140.33 246.93 140.78 244.68 140.78C237.75 140.78 231.5 136.6 228.84 130.2ZM230.69 117.86C228.35 123.51 229.64 130.03 233.97 134.36C238.3 138.69 244.82 139.98 250.47 137.64C256.13 135.29 259.82 129.77 259.82 123.65C259.82 121.66 259.43 119.69 258.66 117.86C257.9 116.02 256.79 114.35 255.38 112.95C253.98 111.54 252.31 110.43 250.47 109.67C248.64 108.9 246.67 108.51 244.68 108.51C238.56 108.51 233.04 112.2 230.69 117.86Z" />
		<path id="Layer" class="shp0" d="M260.82 124.65L244.68 124.65C244.6 124.65 244.52 124.64 244.45 124.62C244.37 124.6 244.3 124.58 244.23 124.54C244.16 124.5 244.1 124.46 244.04 124.41C243.98 124.36 243.93 124.3 243.88 124.24L234.34 111.24C234.21 111.01 234.14 110.74 234.18 110.48C234.22 110.21 234.36 109.98 234.57 109.82C234.78 109.66 235.05 109.59 235.31 109.63C235.58 109.67 235.81 109.81 235.97 110.02L245.23 122.61L260.86 122.61C261.13 122.61 261.38 122.72 261.57 122.9C261.75 123.09 261.86 123.34 261.86 123.61C261.86 123.88 261.75 124.13 261.57 124.32C261.38 124.5 261.13 124.61 260.86 124.61L260.82 124.65Z" />
		<path id="Layer" class="shp0" d="M210.24 91.6L171 91.6C170.73 91.6 170.48 91.49 170.29 91.31C170.11 91.12 170 90.87 170 90.6C170 90.33 170.11 90.08 170.29 89.89C170.48 89.71 170.73 89.6 171 89.6L210.2 89.6C210.47 89.6 210.72 89.71 210.91 89.89C211.09 90.08 211.2 90.33 211.2 90.6C211.2 90.87 211.09 91.12 210.91 91.31C210.72 91.49 210.47 91.6 210.2 91.6L210.24 91.6Z" />
		<path id="Layer" fill-rule="evenodd" class="shp0" d="M238 97.17C237.87 97.17 237.74 97.14 237.62 97.09C237.5 97.04 237.39 96.97 237.29 96.88C237.2 96.78 237.13 96.67 237.08 96.55C237.03 96.43 237 96.3 237 96.17L237 84C237 83.87 237.03 83.74 237.08 83.62C237.13 83.5 237.2 83.39 237.29 83.29C237.39 83.2 237.5 83.13 237.62 83.08C237.74 83.03 237.87 83 238 83L259.12 83C259.25 83 259.38 83.03 259.5 83.08C259.62 83.13 259.73 83.2 259.83 83.29C259.92 83.39 259.99 83.5 260.04 83.62C260.09 83.74 260.12 83.87 260.12 84L260.12 96.21C260.12 96.33 260.09 96.46 260.04 96.57C259.99 96.69 259.92 96.79 259.83 96.88C259.74 96.97 259.64 97.04 259.52 97.09C259.41 97.14 259.28 97.17 259.16 97.17L238 97.17ZM239.04 95.17L258.16 95.17L258.16 85L239 85L239.04 95.17Z" />
		<path id="Layer" class="shp3" d="M161 108.51C161.25 108.44 163.84 103.51 163.84 103.51C163.84 103.51 163.71 99.34 163.72 97.3C163.73 95.26 165.3 94.92 165.72 95.92C165.81 96.25 165.89 96.58 165.97 96.91C166.04 97.24 166.11 97.57 166.18 97.91C166.25 98.24 166.31 98.58 166.37 98.91C166.42 99.25 166.47 99.58 166.52 99.92C166.6 99.92 168.95 93.25 169.52 92.92C170.09 92.59 176.21 95.8 176.52 97.86C176.67 98.86 175.64 102.19 174.46 105.35C174.13 106.24 171.04 108.15 171.04 108.15C170.88 108.47 170.71 108.8 170.53 109.11C170.36 109.43 170.17 109.74 169.98 110.05C169.79 110.35 169.59 110.66 169.38 110.95C169.18 111.25 168.96 111.54 168.74 111.83L161 108.51Z" />
		<path id="Layer" fill-rule="evenodd" class="shp1" d="M168.78 112.81C168.75 112.81 168.71 112.81 168.68 112.8C168.65 112.8 168.61 112.8 168.58 112.79C168.55 112.78 168.52 112.77 168.48 112.76C168.45 112.75 168.42 112.74 168.39 112.73L160.62 109.43C160.47 109.36 160.33 109.26 160.23 109.13C160.12 109 160.05 108.84 160.03 108.68C160 108.51 160.01 108.34 160.07 108.18C160.12 108.02 160.22 107.88 160.34 107.77C160.66 107.33 161.82 105.22 162.84 103.27C162.84 102.27 162.72 99.05 162.73 97.27C162.74 95.49 163.73 94.58 164.59 94.4C164.8 94.36 165.01 94.35 165.22 94.38C165.43 94.41 165.64 94.48 165.82 94.58C166.01 94.67 166.18 94.81 166.32 94.96C166.47 95.12 166.58 95.3 166.66 95.5C166.69 95.56 166.71 95.61 166.73 95.67C166.76 95.73 166.78 95.79 166.8 95.85C166.82 95.91 166.84 95.97 166.85 96.03C166.87 96.09 166.89 96.15 166.9 96.21C168.28 92.72 168.63 92.21 169.11 92C169.42 91.84 169.89 91.6 172.11 92.76C173.29 93.36 177.17 95.5 177.5 97.67C177.71 99.05 176.5 102.78 175.38 105.67C175.02 106.67 173.07 108.02 171.8 108.83C171.64 109.15 171.47 109.47 171.29 109.78C171.11 110.1 170.92 110.41 170.73 110.71C170.53 111.02 170.33 111.31 170.12 111.61C169.9 111.9 169.69 112.19 169.46 112.47C169.42 112.52 169.37 112.56 169.32 112.6C169.27 112.64 169.21 112.68 169.15 112.71C169.1 112.74 169.03 112.76 168.97 112.78C168.91 112.79 168.84 112.81 168.78 112.81ZM162.51 108.06L168.51 110.59C168.67 110.36 168.83 110.12 168.98 109.88C169.13 109.65 169.28 109.41 169.42 109.16C169.56 108.92 169.7 108.68 169.84 108.43C169.97 108.18 170.1 107.93 170.23 107.68C170.25 107.64 170.27 107.6 170.3 107.56C170.33 107.53 170.35 107.49 170.39 107.46C170.42 107.42 170.45 107.39 170.49 107.37C170.52 107.34 170.56 107.31 170.6 107.29C170.88 107.13 171.15 106.96 171.41 106.78C171.67 106.61 171.93 106.42 172.18 106.22C172.43 106.03 172.68 105.82 172.91 105.61C173.15 105.4 173.38 105.18 173.6 104.95C175.2 100.69 175.67 98.45 175.6 97.95C175.44 96.86 171.6 94.47 170.05 93.95C169.52 94.95 168.5 97.68 168.05 98.78C167.34 100.63 167.25 100.87 166.5 100.84C165.75 100.81 165.55 100.14 165.41 99.14C165.38 98.91 165.35 98.69 165.32 98.46C165.28 98.24 165.24 98.02 165.2 97.79C165.16 97.57 165.11 97.35 165.06 97.12C165.01 96.9 164.96 96.68 164.9 96.46C164.87 96.52 164.84 96.58 164.82 96.65C164.79 96.71 164.78 96.78 164.76 96.85C164.75 96.92 164.74 96.98 164.73 97.05C164.73 97.12 164.73 97.19 164.73 97.26C164.73 99.26 164.85 103.39 164.85 103.44C164.85 103.48 164.85 103.52 164.85 103.57C164.84 103.61 164.84 103.65 164.83 103.69C164.82 103.73 164.81 103.77 164.79 103.81C164.78 103.85 164.76 103.89 164.74 103.93C163.67 106 163 107.27 162.51 108.06Z" />
		<path id="Layer" class="shp1" d="M168.37 105.6C168.24 105.6 168.12 105.58 168 105.53C167.88 105.48 167.78 105.42 167.68 105.33C167.59 105.24 167.52 105.14 167.46 105.02C167.41 104.91 167.38 104.79 167.37 104.66C167.37 104.29 167.33 103.92 167.26 103.56C167.2 103.19 167.1 102.84 166.97 102.49C166.84 102.15 166.68 101.81 166.49 101.49C166.3 101.17 166.09 100.87 165.85 100.59C165.76 100.5 165.68 100.39 165.63 100.27C165.58 100.15 165.56 100.02 165.56 99.88C165.56 99.75 165.58 99.62 165.63 99.5C165.68 99.38 165.76 99.27 165.85 99.18C165.94 99.09 166.05 99.02 166.17 98.97C166.29 98.92 166.42 98.89 166.55 98.89C166.68 98.89 166.81 98.92 166.93 98.97C167.05 99.02 167.16 99.09 167.25 99.18C167.58 99.55 167.88 99.94 168.15 100.36C168.41 100.79 168.63 101.23 168.81 101.69C169 102.15 169.14 102.63 169.23 103.11C169.33 103.6 169.38 104.09 169.39 104.59C169.39 104.72 169.37 104.84 169.32 104.96C169.27 105.08 169.21 105.18 169.12 105.28C169.03 105.37 168.93 105.44 168.81 105.5C168.7 105.55 168.58 105.58 168.45 105.59L168.37 105.6Z" />
		<path id="Layer" class="shp4" d="M171.76 113.47C170.76 114.95 162.57 128.84 150.69 134.65C149.93 135.02 149.16 135.35 148.37 135.64C147.57 135.92 146.76 136.16 145.94 136.36C145.12 136.55 144.29 136.69 143.45 136.79C142.62 136.88 141.77 136.93 140.93 136.93C138.33 136.93 134.93 135.02 132.02 133.06C130.44 131.97 129.02 130.87 128.02 130.06C127.02 129.25 126.48 128.72 126.48 128.72L126.48 134.07L126.42 154.4L90.36 154.4L90.36 126.77C81.46 129.1 73.57 132.38 72.07 134.63C71 137 72.83 145 77 152.22L63.41 160C61.5 156.71 52.26 139.6 58.03 127.72C60.84 121.94 67.95 118.05 79.76 113.57C94 108.17 108.1 110.25 116.33 110.16C117.72 110.15 119.1 110.27 120.46 110.51C121.83 110.76 123.16 111.13 124.46 111.63C125.75 112.12 127 112.74 128.18 113.46C129.36 114.19 130.47 115.03 131.49 115.96C135.17 119.28 140.01 122.42 143.82 120.57C150.82 117.14 157.89 108.41 160.01 105.33L171.76 113.47Z" />
		<path id="Layer" fill-rule="evenodd" class="shp1" d="M63.42 161C63.33 161 63.25 160.99 63.16 160.97C63.08 160.95 63 160.91 62.92 160.87C62.84 160.83 62.77 160.78 62.71 160.71C62.65 160.65 62.59 160.59 62.55 160.51C60.55 157.13 51.12 139.65 57.13 127.28C60.2 120.96 67.93 116.99 79.41 112.64C90.89 108.29 102.25 108.71 110.55 109.02C112.65 109.1 114.64 109.18 116.32 109.16C117.77 109.15 119.21 109.27 120.64 109.52C122.06 109.78 123.46 110.17 124.81 110.68C126.17 111.2 127.47 111.84 128.7 112.6C129.93 113.36 131.09 114.23 132.16 115.21C135.42 118.15 140.01 121.31 143.38 119.67C150.21 116.33 157.25 107.57 159.18 104.76C159.22 104.71 159.26 104.65 159.31 104.61C159.36 104.56 159.41 104.52 159.46 104.48C159.52 104.45 159.58 104.42 159.64 104.39C159.7 104.37 159.76 104.35 159.83 104.34C159.89 104.33 159.96 104.32 160.02 104.32C160.09 104.32 160.15 104.33 160.22 104.35C160.28 104.36 160.34 104.38 160.4 104.41C160.46 104.44 160.52 104.47 160.57 104.51L172.32 112.62C172.43 112.69 172.52 112.79 172.59 112.9C172.66 113.01 172.71 113.13 172.74 113.26C172.76 113.39 172.76 113.52 172.73 113.65C172.71 113.78 172.65 113.9 172.58 114.01C172.49 114.13 172.36 114.34 172.18 114.62C165.59 124.88 158.5 131.91 151.13 135.51C150.34 135.9 149.53 136.25 148.7 136.55C147.87 136.84 147.03 137.1 146.17 137.3C145.31 137.5 144.44 137.65 143.57 137.75C142.69 137.85 141.81 137.9 140.93 137.9C138.55 137.9 135.45 136.58 131.45 133.85C129.92 132.85 128.54 131.71 127.5 130.85L127.43 154.35C127.43 154.48 127.4 154.61 127.35 154.73C127.3 154.85 127.23 154.96 127.14 155.06C127.04 155.15 126.93 155.22 126.81 155.27C126.69 155.32 126.56 155.35 126.43 155.35L90.36 155.35C90.23 155.35 90.1 155.32 89.98 155.27C89.86 155.22 89.75 155.15 89.65 155.06C89.56 154.96 89.49 154.85 89.44 154.73C89.39 154.61 89.36 154.48 89.36 154.35L89.36 128.08C80.18 130.59 74.14 133.52 72.95 135.08C72.19 137.03 73.72 144.51 77.83 151.68C77.9 151.79 77.94 151.92 77.96 152.05C77.97 152.18 77.96 152.31 77.93 152.44C77.9 152.57 77.84 152.69 77.76 152.79C77.68 152.9 77.57 152.98 77.46 153.05L63.91 160.86C63.87 160.88 63.83 160.9 63.8 160.92C63.76 160.94 63.72 160.95 63.67 160.96C63.63 160.97 63.59 160.98 63.55 160.99C63.51 161 63.46 161 63.42 161ZM103.05 110.84C96.15 110.84 88.12 111.47 80.12 114.51C69.41 118.57 61.71 122.45 58.93 128.15C53.75 138.81 61.21 153.97 63.79 158.63L75.6 151.82C71.88 144.97 69.86 137.06 71.16 134.19C71.17 134.18 71.17 134.17 71.18 134.15C71.18 134.14 71.19 134.13 71.2 134.12C71.2 134.11 71.21 134.09 71.22 134.08C71.22 134.07 71.23 134.06 71.24 134.05C73.11 131.25 82.06 127.88 90.1 125.78C90.25 125.74 90.41 125.73 90.56 125.77C90.72 125.8 90.86 125.86 90.98 125.96C91.1 126.06 91.2 126.18 91.27 126.33C91.33 126.47 91.37 126.62 91.36 126.78L91.36 153.4L125.44 153.4L125.5 128.72C125.5 128.62 125.52 128.53 125.54 128.44C125.57 128.34 125.61 128.26 125.67 128.18C125.72 128.1 125.78 128.02 125.86 127.96C125.93 127.9 126.01 127.85 126.1 127.81C126.19 127.77 126.28 127.75 126.38 127.73C126.47 127.72 126.57 127.72 126.67 127.74C126.76 127.75 126.85 127.78 126.94 127.83C127.03 127.87 127.11 127.92 127.18 127.99C127.25 128.06 127.75 128.51 128.69 129.29C129.63 130.07 131.07 131.19 132.58 132.23C137.07 135.29 139.58 135.93 140.93 135.93C141.73 135.93 142.54 135.88 143.34 135.79C144.14 135.7 144.93 135.56 145.72 135.38C146.5 135.19 147.27 134.97 148.03 134.69C148.79 134.42 149.53 134.11 150.25 133.75C155.07 131.39 162.47 126.01 170.39 113.75L160.25 106.75C157.58 110.4 150.95 118.23 144.25 121.51C140.74 123.22 136.25 121.61 130.82 116.74C129.84 115.85 128.78 115.05 127.66 114.35C126.53 113.66 125.34 113.07 124.11 112.6C122.87 112.12 121.59 111.77 120.29 111.53C118.99 111.3 117.66 111.19 116.34 111.2C114.61 111.2 112.6 111.14 110.47 111.06C108.34 110.98 105.71 110.87 103.05 110.87L103.05 110.84Z" />
		<path id="Layer" class="shp3" d="M104.15 106.77L112 106.77L112 111.31C112 111.75 111.91 112.19 111.74 112.59C111.58 113 111.33 113.37 111.02 113.68C110.71 113.99 110.34 114.24 109.93 114.4C109.53 114.57 109.09 114.66 108.65 114.66L107.5 114.66C107.06 114.66 106.62 114.57 106.22 114.4C105.81 114.24 105.44 113.99 105.13 113.68C104.82 113.37 104.57 113 104.41 112.59C104.24 112.19 104.15 111.75 104.15 111.31L104.15 106.77Z" />
		<path id="Layer" fill-rule="evenodd" class="shp1" d="M107.5 115.66C106.93 115.66 106.36 115.55 105.84 115.33C105.31 115.11 104.83 114.79 104.42 114.39C104.02 113.98 103.7 113.5 103.48 112.97C103.26 112.45 103.15 111.88 103.15 111.31L103.15 106.77C103.15 106.64 103.18 106.51 103.23 106.39C103.28 106.27 103.35 106.16 103.44 106.06C103.54 105.97 103.65 105.9 103.77 105.85C103.89 105.8 104.02 105.77 104.15 105.77L112 105.77C112.13 105.77 112.26 105.8 112.38 105.85C112.5 105.9 112.61 105.97 112.71 106.06C112.8 106.16 112.87 106.27 112.92 106.39C112.97 106.51 113 106.64 113 106.77L113 111.31C113 111.88 112.89 112.44 112.67 112.97C112.46 113.49 112.14 113.97 111.74 114.37C111.34 114.78 110.87 115.1 110.34 115.32C109.82 115.54 109.26 115.65 108.69 115.66L107.5 115.66ZM105.15 107.77L105.15 111.31C105.15 111.62 105.21 111.92 105.33 112.21C105.45 112.49 105.62 112.75 105.84 112.97C106.06 113.19 106.32 113.36 106.6 113.48C106.89 113.6 107.19 113.66 107.5 113.66L108.69 113.66C109 113.66 109.3 113.6 109.59 113.48C109.87 113.36 110.13 113.19 110.35 112.97C110.57 112.75 110.74 112.49 110.86 112.21C110.98 111.92 111.04 111.62 111.04 111.31L111.04 107.77L105.15 107.77Z" />
		<path id="Layer" class="shp5" d="M80.32 86.28C80.32 86.28 73.32 56.67 75.92 51.94C78.52 47.21 82.61 49 82.61 49C82.61 49 88.15 33 100.39 32.36C112.63 31.72 118.66 40.02 125.51 39.05C132.36 38.08 135.62 35.62 135.62 35.62C136.19 36.71 136.6 37.89 136.83 39.1C137.06 40.31 137.11 41.55 136.98 42.78C136.85 44 136.54 45.21 136.06 46.34C135.58 47.48 134.94 48.54 134.15 49.49C133.36 50.44 139.21 46.39 139.86 53.56C140.51 60.73 136.11 85.56 136.11 85.56L131.21 84.71L80.32 86.28Z" />
		<path id="Layer" fill-rule="evenodd" class="shp1" d="M80.32 87.28C80.21 87.28 80.09 87.27 79.98 87.23C79.88 87.2 79.77 87.14 79.68 87.07C79.59 87 79.51 86.92 79.45 86.82C79.39 86.73 79.35 86.62 79.32 86.51C78.59 83.44 72.32 56.38 75.01 51.46C77.01 47.81 80.01 47.38 82.01 47.78C83.42 44.27 89.16 31.97 100.33 31.37C107.33 30.99 112.5 33.51 116.63 35.53C119.84 37.1 122.63 38.46 125.36 38.07C131.89 37.13 134.99 34.85 135.02 34.83C135.08 34.79 135.14 34.75 135.2 34.72C135.27 34.69 135.33 34.67 135.4 34.65C135.47 34.64 135.54 34.63 135.61 34.63C135.68 34.63 135.75 34.64 135.82 34.65C135.89 34.66 135.96 34.69 136.02 34.71C136.08 34.74 136.14 34.78 136.2 34.82C136.26 34.86 136.31 34.91 136.36 34.96C136.4 35.01 136.45 35.07 136.48 35.13C136.99 36.11 137.37 37.14 137.63 38.21C137.89 39.28 138.03 40.38 138.03 41.48C138.03 42.58 137.89 43.68 137.63 44.75C137.37 45.82 136.99 46.85 136.48 47.83C136.63 47.82 136.78 47.83 136.93 47.84C137.08 47.85 137.23 47.87 137.37 47.91C137.52 47.94 137.66 47.98 137.8 48.04C137.94 48.09 138.08 48.15 138.21 48.22C139.73 48.99 140.63 50.75 140.88 53.48C141.53 60.71 137.29 84.7 137.11 85.72C137.09 85.85 137.04 85.97 136.97 86.08C136.9 86.19 136.81 86.29 136.7 86.36C136.59 86.44 136.47 86.49 136.35 86.52C136.22 86.55 136.09 86.55 135.96 86.53L131.16 85.69L80.38 87.28L80.32 87.28ZM76.78 52.42C75.05 55.55 78.44 73.87 81.09 85.25L131.16 83.69C131.18 83.69 131.19 83.69 131.21 83.68C131.23 83.68 131.25 83.68 131.26 83.68C131.28 83.68 131.3 83.68 131.32 83.68C131.34 83.69 131.35 83.69 131.37 83.69L135.27 84.37C136.08 79.71 139.4 59.82 138.84 53.65C138.67 51.65 138.13 50.43 137.28 50C137.06 49.93 136.84 49.89 136.61 49.87C136.38 49.85 136.15 49.85 135.93 49.88C135.7 49.91 135.48 49.96 135.26 50.04C135.05 50.12 134.84 50.22 134.65 50.34C134.45 50.46 134.21 50.51 133.98 50.47C133.75 50.44 133.53 50.32 133.38 50.15C133.22 49.97 133.14 49.74 133.13 49.51C133.12 49.27 133.2 49.04 133.35 48.86C134.03 48.06 134.59 47.17 135.02 46.22C135.46 45.26 135.76 44.25 135.92 43.22C136.08 42.18 136.1 41.13 135.97 40.09C135.85 39.05 135.58 38.03 135.18 37.06C134.44 37.45 133.68 37.81 132.9 38.13C132.13 38.45 131.34 38.74 130.54 38.99C129.74 39.24 128.93 39.46 128.11 39.64C127.29 39.82 126.46 39.96 125.63 40.06C122.26 40.54 119.23 39.06 115.73 37.34C111.6 35.34 106.94 33.03 100.42 33.34C89.01 33.95 83.59 49.15 83.53 49.34C83.51 49.4 83.48 49.47 83.44 49.53C83.41 49.59 83.37 49.64 83.32 49.69C83.28 49.74 83.22 49.79 83.17 49.83C83.11 49.87 83.05 49.9 82.99 49.93C82.93 49.96 82.86 49.98 82.79 49.99C82.73 50.01 82.66 50.01 82.59 50.01C82.52 50.01 82.45 50.01 82.39 49.99C82.32 49.98 82.25 49.96 82.19 49.93C82.08 49.89 81.96 49.85 81.85 49.81C81.73 49.78 81.62 49.75 81.5 49.73C81.38 49.71 81.26 49.69 81.14 49.68C81.02 49.67 80.9 49.66 80.78 49.66C79.65 49.66 78.05 50.15 76.78 52.42Z" />
		<path id="Layer" class="shp3" d="M85.54 92.89C81.3 92.89 77.87 89.94 77.87 86.28C77.87 82.62 81.3 79.67 85.54 79.67C89.78 79.67 93.21 82.62 93.21 86.28C93.21 89.94 89.78 92.89 85.54 92.89Z" />
		<path id="Layer" fill-rule="evenodd" class="shp1" d="M85.54 93.88C80.77 93.88 76.88 90.47 76.88 86.28C76.88 82.09 80.77 78.67 85.54 78.67C90.31 78.67 94.21 82.08 94.21 86.28C94.21 90.48 90.32 93.88 85.54 93.88ZM78.88 86.28C78.88 89.37 81.88 91.88 85.54 91.88C89.2 91.88 92.21 89.37 92.21 86.28C92.21 83.19 89.22 80.67 85.54 80.67C81.87 80.67 78.88 83.19 78.88 86.28Z" />
		<path id="Layer" class="shp3" d="M130.24 92.89C126 92.89 122.57 89.94 122.57 86.28C122.57 82.62 126 79.67 130.24 79.67C134.48 79.67 137.91 82.62 137.91 86.28C137.91 89.94 134.48 92.89 130.24 92.89Z" />
		<path id="Layer" fill-rule="evenodd" class="shp1" d="M130.24 93.88C125.46 93.88 121.57 90.47 121.57 86.28C121.57 82.09 125.46 78.67 130.24 78.67C135.02 78.67 138.9 82.08 138.9 86.28C138.9 90.48 135 93.88 130.24 93.88ZM123.57 86.28C123.57 89.37 126.57 91.88 130.24 91.88C133.91 91.88 136.9 89.37 136.9 86.28C136.9 83.19 133.91 80.67 130.24 80.67C126.56 80.67 123.57 83.19 123.57 86.28Z" />
		<path id="Layer" class="shp3" d="M108.09 107.81L108.09 107.81C105.06 107.81 102.05 107.21 99.25 106.04C96.45 104.88 93.9 103.17 91.76 101.03C89.62 98.88 87.92 96.33 86.76 93.53C85.6 90.73 85 87.72 85 84.69L85 63.28C85 63.28 87.86 69.28 96.34 61.16C120.97 73.64 131.24 63.28 131.24 63.28L131.24 84.69C131.24 87.73 130.64 90.74 129.48 93.54C128.31 96.35 126.61 98.9 124.46 101.05C122.31 103.2 119.76 104.9 116.95 106.06C114.14 107.22 111.13 107.81 108.09 107.81L108.09 107.81Z" />
		<path id="Layer" fill-rule="evenodd" class="shp1" d="M98.87 106.96C95.95 105.74 93.3 103.96 91.06 101.73C88.83 99.49 87.05 96.83 85.84 93.91C84.63 90.99 84 87.85 84 84.69L84 63.28C84 63.05 84.07 62.83 84.21 62.65C84.36 62.47 84.56 62.34 84.78 62.29C85 62.24 85.24 62.27 85.44 62.37C85.65 62.47 85.81 62.64 85.91 62.85C86.02 63.05 86.15 63.23 86.29 63.4C86.44 63.56 86.61 63.72 86.79 63.85C86.97 63.98 87.16 64.09 87.36 64.18C87.57 64.27 87.78 64.34 88 64.38C89.35 64.61 91.77 64.12 95.6 60.44C95.67 60.37 95.76 60.31 95.85 60.27C95.94 60.22 96.04 60.19 96.14 60.17C96.24 60.16 96.35 60.16 96.45 60.18C96.55 60.19 96.65 60.22 96.74 60.27C109.11 66.53 117.65 66.81 122.63 65.94C127.97 65.01 130.46 62.59 130.49 62.57C130.56 62.5 130.64 62.44 130.73 62.4C130.81 62.35 130.91 62.32 131 62.3C131.1 62.28 131.2 62.28 131.3 62.29C131.39 62.3 131.49 62.32 131.58 62.36C131.67 62.4 131.75 62.45 131.83 62.51C131.9 62.57 131.97 62.65 132.02 62.73C132.08 62.81 132.12 62.9 132.15 62.99C132.18 63.09 132.19 63.18 132.19 63.28L132.19 84.69C132.19 87.85 131.56 90.99 130.35 93.91C129.14 96.83 127.36 99.49 125.12 101.73C122.89 103.97 120.23 105.75 117.31 106.96C114.39 108.17 111.25 108.8 108.09 108.81C104.93 108.8 101.79 108.17 98.87 106.96ZM86 84.72C86 87.62 86.58 90.5 87.69 93.18C88.8 95.86 90.43 98.3 92.49 100.35C94.54 102.41 96.98 104.04 99.66 105.15C102.34 106.26 105.22 106.84 108.12 106.84C111.02 106.84 113.9 106.26 116.58 105.15C119.26 104.04 121.7 102.41 123.75 100.35C125.81 98.3 127.44 95.86 128.55 93.18C129.66 90.5 130.24 87.62 130.24 84.72L130.24 65.29C126.37 67.74 115.79 71.92 96.52 62.36C93.15 65.46 90.17 66.8 87.66 66.36C87.51 66.33 87.37 66.3 87.23 66.26C87.08 66.21 86.94 66.17 86.8 66.11C86.66 66.06 86.53 66 86.39 65.93C86.26 65.87 86.13 65.8 86 65.72L86 84.72Z" />
		<path id="Layer" class="shp1" d="M97.39 83.46C96.21 83.46 95.25 82.5 95.25 81.32C95.25 80.14 96.21 79.18 97.39 79.18C98.57 79.18 99.53 80.14 99.53 81.32C99.53 82.5 98.57 83.46 97.39 83.46Z" />
		<path id="Layer" class="shp1" d="M119.47 83.46C118.29 83.46 117.33 82.5 117.33 81.32C117.33 80.14 118.29 79.18 119.47 79.18C120.65 79.18 121.61 80.14 121.61 81.32C121.61 82.5 120.65 83.46 119.47 83.46Z" />
		<path id="Layer" class="shp2" d="M116.53 91.65C116.61 93.94 115.76 96.16 114.16 97.8C112.57 99.45 110.38 100.38 108.09 100.38C105.81 100.38 103.62 99.45 102.03 97.8C100.43 96.16 99.58 93.94 99.66 91.65L116.53 91.65Z" />
		<path id="Layer" fill-rule="evenodd" class="shp1" d="M108.09 101.09C106.85 101.09 105.62 100.84 104.48 100.37C103.34 99.89 102.3 99.2 101.42 98.32C100.55 97.45 99.85 96.4 99.38 95.26C98.9 94.12 98.66 92.89 98.66 91.65C98.66 91.52 98.69 91.39 98.74 91.27C98.79 91.15 98.86 91.04 98.95 90.94C99.05 90.85 99.16 90.78 99.28 90.73C99.4 90.68 99.53 90.65 99.66 90.65L116.53 90.65C116.66 90.65 116.79 90.68 116.91 90.73C117.03 90.78 117.14 90.85 117.24 90.94C117.33 91.04 117.4 91.15 117.45 91.27C117.5 91.39 117.53 91.52 117.53 91.65C117.53 92.89 117.29 94.12 116.81 95.26C116.34 96.41 115.64 97.45 114.77 98.33C113.89 99.2 112.85 99.9 111.7 100.37C110.56 100.85 109.33 101.09 108.09 101.09ZM100.73 92.65C100.97 94.43 101.85 96.07 103.2 97.26C104.55 98.45 106.29 99.1 108.09 99.1C109.9 99.1 111.64 98.45 112.99 97.26C114.34 96.07 115.22 94.43 115.46 92.65L100.73 92.65Z" />
		<path id="Layer" class="shp1" d="M108 89.52C107.82 89.52 107.64 89.51 107.46 89.51C107.28 89.5 107.1 89.49 106.93 89.47C106.75 89.46 106.57 89.44 106.39 89.42C106.21 89.39 106.04 89.37 105.86 89.34C105.6 89.28 105.37 89.13 105.22 88.91C105.06 88.7 105 88.43 105.05 88.17C105.1 87.91 105.24 87.67 105.46 87.52C105.68 87.37 105.95 87.31 106.21 87.35C106.44 87.38 106.67 87.41 106.9 87.43C107.14 87.46 107.37 87.47 107.6 87.48C107.84 87.48 108.07 87.48 108.3 87.47C108.54 87.46 108.77 87.45 109 87.42C108.91 87.02 108.8 86.61 108.68 86.22C108.56 85.82 108.43 85.43 108.28 85.04C108.13 84.65 107.97 84.27 107.8 83.9C107.62 83.52 107.43 83.15 107.23 82.79C107.17 82.67 107.13 82.55 107.12 82.42C107.11 82.29 107.13 82.16 107.17 82.03C107.2 81.91 107.27 81.79 107.35 81.69C107.43 81.59 107.54 81.51 107.65 81.45C107.77 81.39 107.89 81.35 108.02 81.34C108.15 81.33 108.29 81.34 108.41 81.38C108.54 81.42 108.65 81.48 108.75 81.57C108.86 81.65 108.94 81.75 109 81.87C110 83.71 111.47 87.01 110.82 88.45C110.77 88.55 110.72 88.65 110.65 88.74C110.58 88.83 110.51 88.92 110.42 88.99C110.33 89.06 110.24 89.13 110.14 89.18C110.04 89.23 109.93 89.27 109.82 89.3C109.67 89.34 109.52 89.37 109.37 89.39C109.22 89.42 109.07 89.44 108.92 89.46C108.76 89.48 108.61 89.5 108.46 89.5C108.31 89.51 108.15 89.52 108 89.52Z" />
		<path id="Layer" class="shp1" d="M91.64 76.93C91.11 76.97 90.59 76.81 90.18 76.47C89.77 76.13 89.51 75.64 89.46 75.11C89.41 74.59 89.58 74.06 89.92 73.65C90.26 73.24 90.74 72.99 91.27 72.94L101.27 71.04C101.79 70.94 102.33 71.05 102.77 71.35C103.21 71.65 103.51 72.11 103.61 72.63C103.71 73.15 103.6 73.69 103.3 74.13C103 74.57 102.54 74.87 102.02 74.97L92.02 76.87C91.99 76.88 91.96 76.88 91.93 76.89C91.89 76.9 91.86 76.9 91.83 76.91C91.8 76.91 91.77 76.92 91.74 76.92C91.7 76.92 91.67 76.93 91.64 76.93L91.64 76.93Z" />
		<path id="Layer" class="shp1" d="M126.43 76.93L126.06 76.93L116 75C115.49 74.89 115.04 74.59 114.75 74.15C114.46 73.72 114.35 73.19 114.45 72.67C114.54 72.16 114.84 71.7 115.27 71.4C115.7 71.1 116.22 70.98 116.74 71.07L126.74 72.96C127.27 73.02 127.75 73.27 128.09 73.68C128.43 74.09 128.6 74.62 128.55 75.14C128.5 75.67 128.24 76.16 127.83 76.5C127.42 76.84 126.9 77 126.37 76.95L126.43 76.93Z" />
		<path id="Layer" class="shp1" d="M90.73 154.4L102.23 154.4L102.23 232.86L90.73 232.86L90.73 154.4Z" />
		<path id="Layer" fill-rule="evenodd" class="shp1" d="M102.23 233.86L90.73 233.86C90.6 233.86 90.47 233.83 90.35 233.78C90.23 233.73 90.12 233.66 90.02 233.57C89.93 233.47 89.86 233.36 89.81 233.24C89.76 233.12 89.73 232.99 89.73 232.86L89.73 154.4C89.73 154.27 89.76 154.14 89.81 154.02C89.86 153.9 89.93 153.79 90.02 153.69C90.12 153.6 90.23 153.53 90.35 153.48C90.47 153.43 90.6 153.4 90.73 153.4L102.23 153.4C102.36 153.4 102.49 153.43 102.61 153.48C102.73 153.53 102.84 153.6 102.94 153.69C103.03 153.79 103.1 153.9 103.15 154.02C103.2 154.14 103.23 154.27 103.23 154.4L103.23 232.86C103.23 232.99 103.2 233.12 103.15 233.24C103.1 233.36 103.03 233.47 102.94 233.57C102.84 233.66 102.73 233.73 102.61 233.78C102.49 233.83 102.36 233.86 102.23 233.86ZM91.73 231.86L101.23 231.86L101.23 155.4L91.73 155.4L91.73 231.86Z" />
		<path id="Layer" class="shp1" d="M115 154.4L126.5 154.4L126.5 232.86L115 232.86L115 154.4Z" />
		<path id="Layer" fill-rule="evenodd" class="shp1" d="M126.5 233.86L115 233.86C114.87 233.86 114.74 233.83 114.62 233.78C114.5 233.73 114.39 233.66 114.29 233.57C114.2 233.47 114.13 233.36 114.08 233.24C114.03 233.12 114 232.99 114 232.86L114 154.4C114 154.27 114.03 154.14 114.08 154.02C114.13 153.9 114.2 153.79 114.29 153.69C114.39 153.6 114.5 153.53 114.62 153.48C114.74 153.43 114.87 153.4 115 153.4L126.5 153.4C126.63 153.4 126.76 153.43 126.88 153.48C127 153.53 127.11 153.6 127.21 153.69C127.3 153.79 127.37 153.9 127.42 154.02C127.47 154.14 127.5 154.27 127.5 154.4L127.5 232.86C127.5 232.99 127.47 233.12 127.42 233.24C127.37 233.36 127.3 233.47 127.21 233.57C127.11 233.66 127 233.73 126.88 233.78C126.76 233.83 126.63 233.86 126.5 233.86ZM116 231.86L125.5 231.86L125.5 155.4L116 155.4L116 231.86Z" />
		<path id="Layer" class="shp2" d="M107.06 115.52L109.51 115.52C110.45 115.52 111.21 116.28 111.21 117.22L111.21 118.42C111.21 119.36 110.45 120.12 109.51 120.12L107.06 120.12C106.12 120.12 105.36 119.36 105.36 118.42L105.36 117.22C105.36 116.28 106.12 115.52 107.06 115.52Z" />
		<path id="Layer" fill-rule="evenodd" class="shp1" d="M107.06 121.12C106.71 121.12 106.35 121.05 106.03 120.91C105.7 120.78 105.4 120.58 105.15 120.33C104.9 120.08 104.7 119.78 104.57 119.45C104.43 119.13 104.36 118.77 104.36 118.42L104.36 117.22C104.36 116.87 104.43 116.51 104.57 116.19C104.7 115.86 104.9 115.56 105.15 115.31C105.4 115.06 105.7 114.86 106.03 114.73C106.35 114.59 106.71 114.52 107.06 114.52L109.51 114.52C109.86 114.52 110.22 114.59 110.54 114.73C110.87 114.86 111.17 115.06 111.42 115.31C111.67 115.56 111.87 115.86 112 116.19C112.14 116.51 112.21 116.87 112.21 117.22L112.21 118.42C112.21 118.77 112.14 119.13 112 119.45C111.87 119.78 111.67 120.08 111.42 120.33C111.17 120.58 110.87 120.78 110.54 120.91C110.22 121.05 109.86 121.12 109.51 121.12L107.06 121.12ZM107.06 116.52C106.97 116.52 106.88 116.54 106.79 116.57C106.71 116.61 106.63 116.66 106.57 116.73C106.5 116.79 106.45 116.87 106.41 116.95C106.38 117.04 106.36 117.13 106.36 117.22L106.36 118.42C106.36 118.51 106.38 118.6 106.41 118.69C106.45 118.77 106.5 118.85 106.57 118.91C106.63 118.98 106.71 119.03 106.79 119.07C106.88 119.1 106.97 119.12 107.06 119.12L109.51 119.12C109.6 119.12 109.69 119.1 109.78 119.07C109.86 119.03 109.94 118.98 110 118.91C110.07 118.85 110.12 118.77 110.16 118.69C110.19 118.6 110.21 118.51 110.21 118.42L110.21 117.22C110.21 117.13 110.19 117.04 110.16 116.95C110.12 116.87 110.07 116.79 110 116.73C109.94 116.66 109.86 116.61 109.78 116.57C109.69 116.54 109.6 116.52 109.51 116.52L107.06 116.52Z" />
		<path id="Layer" class="shp2" d="M106.61 120.12L102.92 141.03L108.28 148.07L112.31 140.69L109.96 120.12L106.61 120.12L106.61 120.12Z" />
		<path id="Layer" fill-rule="evenodd" class="shp1" d="M108.29 149.07C108.21 149.07 108.14 149.06 108.06 149.04C107.98 149.03 107.91 149 107.84 148.96C107.77 148.93 107.71 148.89 107.65 148.84C107.59 148.79 107.54 148.73 107.49 148.67L102.12 141.67C102.08 141.61 102.05 141.55 102.02 141.49C101.99 141.43 101.97 141.37 101.95 141.3C101.93 141.23 101.92 141.16 101.92 141.1C101.92 141.03 101.92 140.96 101.93 140.89L105.62 120C105.64 119.88 105.68 119.77 105.74 119.67C105.8 119.57 105.88 119.48 105.97 119.4C106.06 119.32 106.16 119.27 106.27 119.23C106.38 119.19 106.5 119.17 106.62 119.17L110 119.17C110.12 119.17 110.24 119.19 110.36 119.23C110.47 119.28 110.58 119.34 110.67 119.42C110.76 119.5 110.84 119.6 110.89 119.71C110.95 119.82 110.99 119.94 111 120.06L113.34 140.62C113.35 140.67 113.35 140.72 113.35 140.78C113.34 140.83 113.34 140.88 113.33 140.93C113.32 140.98 113.3 141.03 113.28 141.08C113.27 141.13 113.25 141.17 113.22 141.22L109.22 148.6C109.18 148.67 109.13 148.74 109.08 148.8C109.02 148.86 108.96 148.92 108.89 148.96C108.82 149.01 108.74 149.04 108.66 149.07C108.58 149.1 108.5 149.11 108.42 149.12L108.29 149.07ZM104 140.78L108.17 146.24L111.3 140.49L109.09 121.12L107.47 121.12L104 140.78Z" />
		<path id="Layer" class="shp1" d="M98.75 154.4L118.49 154.4L118.49 161.57C118.49 162.49 118.31 163.4 117.96 164.25C117.61 165.1 117.09 165.87 116.44 166.52C115.79 167.17 115.02 167.69 114.17 168.04C113.32 168.39 112.41 168.57 111.49 168.57L105.76 168.57C104.84 168.57 103.93 168.39 103.08 168.04C102.23 167.69 101.46 167.17 100.81 166.52C100.16 165.87 99.64 165.1 99.29 164.25C98.94 163.4 98.76 162.49 98.76 161.57L98.76 154.4C-40 -13 -40 -13 -40 -13L-40 -13L-40 -13L-40 -13L98.75 154.4Z" />
		<path id="Layer" fill-rule="evenodd" class="shp1" d="M105.75 169.58C104.7 169.58 103.66 169.37 102.69 168.97C101.72 168.57 100.84 167.98 100.09 167.24C99.35 166.49 98.76 165.61 98.36 164.64C97.96 163.67 97.75 162.63 97.75 161.58L97.75 154.4C97.75 154.27 97.78 154.14 97.83 154.02C97.88 153.9 97.95 153.79 98.04 153.69C98.14 153.6 98.25 153.53 98.37 153.48C98.49 153.43 98.62 153.4 98.75 153.4L118.49 153.4C118.62 153.4 118.75 153.43 118.87 153.48C118.99 153.53 119.1 153.6 119.2 153.69C119.29 153.79 119.36 153.9 119.41 154.02C119.46 154.14 119.49 154.27 119.49 154.4L119.49 161.58C119.49 162.63 119.28 163.67 118.88 164.64C118.48 165.62 117.89 166.5 117.14 167.24C116.4 167.98 115.52 168.57 114.54 168.97C113.57 169.38 112.53 169.58 111.48 169.58L105.75 169.58ZM99.75 155.4L99.75 161.58C99.75 162.37 99.91 163.15 100.21 163.88C100.51 164.6 100.95 165.27 101.51 165.82C102.06 166.38 102.73 166.82 103.45 167.12C104.18 167.42 104.96 167.58 105.75 167.58L111.48 167.58C112.27 167.58 113.05 167.42 113.78 167.12C114.5 166.82 115.17 166.38 115.72 165.82C116.28 165.27 116.72 164.6 117.02 163.88C117.32 163.15 117.48 162.37 117.48 161.58L117.48 155.4L99.75 155.4Z" />
		<path id="Layer" class="shp6" d="M102.23 232.86L102.23 241.67L81.91 241.67C81.91 241.67 83 234.88 91.08 232.86L102.23 232.86Z" />
		<path id="Layer" fill-rule="evenodd" class="shp1" d="M102.23 242.67L81.91 242.67C81.76 242.67 81.62 242.64 81.49 242.58C81.35 242.52 81.23 242.43 81.14 242.32C81.04 242.21 80.97 242.08 80.93 241.94C80.9 241.8 80.89 241.65 80.91 241.51C80.91 241.21 82.2 234.05 90.82 231.89C90.84 231.89 90.86 231.89 90.88 231.88C90.9 231.88 90.92 231.88 90.94 231.88C90.97 231.88 90.99 231.88 91.01 231.88C91.03 231.89 91.05 231.89 91.07 231.89L102.22 231.89C102.35 231.89 102.48 231.92 102.6 231.97C102.72 232.02 102.83 232.09 102.93 232.18C103.02 232.28 103.09 232.39 103.14 232.51C103.19 232.63 103.22 232.76 103.22 232.89L103.22 241.7C103.22 241.83 103.19 241.95 103.14 242.07C103.09 242.19 103.01 242.29 102.92 242.38C102.83 242.47 102.72 242.55 102.6 242.59C102.48 242.64 102.36 242.67 102.23 242.67ZM101.23 240.67L101.23 233.86L91.23 233.86C90.33 234.05 89.47 234.35 88.64 234.75C87.82 235.15 87.06 235.65 86.36 236.25C85.66 236.84 85.04 237.52 84.51 238.26C83.98 239.01 83.55 239.82 83.22 240.67L101.23 240.67Z" />
		<path id="Layer" class="shp6" d="M115 232.86L115 241.67L135.32 241.67C135.32 241.67 134.23 234.88 126.16 232.86L115 232.86Z" />
		<path id="Layer" fill-rule="evenodd" class="shp1" d="M135.32 242.67L115 242.67C114.87 242.67 114.74 242.64 114.62 242.59C114.5 242.54 114.39 242.47 114.29 242.38C114.2 242.28 114.13 242.17 114.08 242.05C114.03 241.93 114 241.8 114 241.67L114 232.86C114 232.73 114.03 232.6 114.08 232.48C114.13 232.36 114.2 232.25 114.29 232.15C114.39 232.06 114.5 231.99 114.62 231.94C114.74 231.89 114.87 231.86 115 231.86L126.4 231.86C135.02 234.02 136.26 241.18 136.31 241.48C136.32 241.55 136.33 241.62 136.32 241.7C136.32 241.77 136.31 241.84 136.29 241.91C136.27 241.98 136.24 242.05 136.21 242.11C136.18 242.17 136.14 242.23 136.09 242.29C136.04 242.35 135.99 242.4 135.93 242.45C135.88 242.49 135.81 242.53 135.75 242.57C135.68 242.6 135.61 242.62 135.54 242.64C135.47 242.66 135.39 242.67 135.32 242.67ZM116 240.67L134 240.67C133.67 239.82 133.24 239.01 132.71 238.26C132.18 237.52 131.56 236.84 130.87 236.25C130.17 235.66 129.4 235.15 128.58 234.75C127.76 234.35 126.89 234.05 126 233.86L116 233.86L116 240.67Z" />
		<path id="Layer" class="shp7" d="M93.25 159.26L103.81 181.45C104.48 182.85 103.88 184.52 102.48 185.18L71.55 199.9C70.15 200.57 68.48 199.97 67.81 198.58L57.26 176.38C56.59 174.98 57.18 173.31 58.58 172.65L89.52 157.93C90.92 157.27 92.59 157.86 93.25 159.26Z" />
		<path id="Layer" fill-rule="evenodd" class="shp1" d="M70.34 201.16C69.98 201.16 69.63 201.11 69.28 201.01C68.94 200.91 68.61 200.77 68.31 200.58C68 200.39 67.73 200.16 67.49 199.89C67.25 199.62 67.05 199.32 66.9 199L56.34 176.8C56.13 176.35 56 175.86 55.98 175.36C55.95 174.86 56.03 174.36 56.19 173.89C56.36 173.42 56.62 172.99 56.95 172.62C57.29 172.25 57.69 171.95 58.14 171.73L89.08 157C89.53 156.78 90.02 156.66 90.52 156.63C91.02 156.61 91.52 156.68 91.99 156.84C92.46 157.01 92.89 157.27 93.26 157.6C93.63 157.94 93.93 158.34 94.15 158.79L104.7 181C104.91 181.45 105.04 181.94 105.06 182.44C105.09 182.93 105.01 183.43 104.85 183.9C104.68 184.37 104.42 184.8 104.09 185.17C103.75 185.54 103.35 185.85 102.9 186.06L72 200.79C71.87 200.85 71.74 200.91 71.6 200.95C71.47 201 71.33 201.04 71.19 201.07C71.05 201.1 70.91 201.12 70.77 201.14C70.63 201.15 70.48 201.16 70.34 201.16ZM68.71 198.16C68.81 198.37 68.95 198.56 69.13 198.72C69.3 198.88 69.51 199 69.73 199.08C69.95 199.16 70.19 199.19 70.42 199.18C70.66 199.17 70.89 199.11 71.1 199.01L102.1 184.3C102.31 184.2 102.5 184.05 102.66 183.88C102.82 183.7 102.94 183.5 103.02 183.27C103.1 183.05 103.13 182.82 103.12 182.58C103.11 182.34 103.05 182.11 102.95 181.9L92.39 159.7C92.29 159.49 92.15 159.3 91.97 159.14C91.79 158.98 91.59 158.86 91.37 158.78C91.14 158.7 90.91 158.66 90.67 158.68C90.43 158.69 90.2 158.75 89.99 158.85L59 173.54C58.79 173.64 58.6 173.78 58.44 173.96C58.28 174.14 58.16 174.34 58.08 174.56C58 174.79 57.96 175.02 57.98 175.26C57.99 175.5 58.05 175.73 58.15 175.94L68.71 198.16Z" />
		<path id="Layer" class="shp2" d="M98.78 165.47L102.47 173.23C102.81 173.94 102.51 174.78 101.81 175.11L100.15 175.9C99.45 176.23 98.61 175.93 98.27 175.23L94.58 167.46C94.24 166.76 94.54 165.92 95.25 165.58L96.9 164.8C97.6 164.46 98.44 164.76 98.78 165.47Z" />
		<path id="Layer" fill-rule="evenodd" class="shp1" d="M98.88 176.9C98.66 176.84 98.45 176.75 98.26 176.63C98.06 176.5 97.89 176.36 97.74 176.19C97.59 176.02 97.46 175.83 97.36 175.62L93.67 167.86C93.6 167.72 93.55 167.57 93.51 167.42C93.47 167.26 93.45 167.11 93.44 166.95C93.43 166.79 93.44 166.63 93.46 166.48C93.49 166.32 93.53 166.17 93.58 166.02C93.63 165.87 93.7 165.73 93.78 165.59C93.86 165.45 93.95 165.32 94.06 165.21C94.16 165.09 94.28 164.98 94.41 164.89C94.54 164.8 94.68 164.72 94.82 164.65L96.46 163.86C96.75 163.72 97.06 163.65 97.37 163.63C97.69 163.61 98.01 163.66 98.31 163.76C98.6 163.87 98.88 164.03 99.12 164.25C99.35 164.46 99.54 164.71 99.68 165L103.37 172.76C103.5 173.05 103.58 173.36 103.6 173.67C103.61 173.99 103.57 174.31 103.46 174.6C103.36 174.9 103.19 175.18 102.98 175.41C102.77 175.65 102.51 175.84 102.23 175.98L100.58 176.76C100.5 176.8 100.42 176.83 100.33 176.86C100.25 176.89 100.17 176.92 100.08 176.94C99.99 176.96 99.9 176.97 99.82 176.98C99.73 176.99 99.64 177 99.55 177C99.32 177 99.1 176.97 98.88 176.9ZM99.17 174.76C99.19 174.81 99.22 174.85 99.26 174.89C99.3 174.93 99.35 174.96 99.4 174.98C99.45 174.99 99.51 175 99.56 175C99.62 175 99.67 174.98 99.72 174.96L101.37 174.17C101.42 174.15 101.46 174.12 101.5 174.08C101.54 174.03 101.57 173.99 101.58 173.94C101.6 173.88 101.61 173.83 101.6 173.78C101.6 173.72 101.59 173.67 101.56 173.62L97.87 165.86C97.85 165.81 97.81 165.77 97.77 165.73C97.73 165.7 97.69 165.67 97.63 165.65C97.58 165.63 97.53 165.63 97.48 165.63C97.42 165.63 97.37 165.65 97.32 165.67L95.68 166.45C95.63 166.47 95.59 166.5 95.55 166.54C95.51 166.58 95.48 166.63 95.46 166.68C95.45 166.73 95.44 166.79 95.44 166.84C95.44 166.9 95.46 166.95 95.48 167L99.17 174.76Z" />
		<path id="Layer" class="shp3" d="M74.72 153.52C74.72 153.52 76.72 159.07 77.33 159.79C77.94 160.51 81.67 161.62 80.16 162.27L77.16 163.54C77.16 163.54 80.42 169.45 78.21 171.02C76 172.59 69.87 173.13 68.6 171.2C67.33 169.27 65.48 164.2 66.88 162.6C68.28 161 67.33 157.67 67.33 157.67L74.72 153.52Z" />
		<path id="Layer" fill-rule="evenodd" class="shp1" d="M72.04 173.43C71.87 173.43 71.7 173.42 71.54 173.4C71.37 173.39 71.2 173.37 71.04 173.35C70.87 173.33 70.7 173.3 70.54 173.27C70.27 173.24 70.01 173.19 69.75 173.11C69.49 173.03 69.25 172.92 69.01 172.79C68.77 172.66 68.55 172.51 68.35 172.33C68.14 172.16 67.96 171.96 67.79 171.75C66.53 169.84 64.21 164.11 66.15 161.93C66.93 161.06 66.64 158.87 66.38 157.93C66.35 157.82 66.34 157.71 66.34 157.6C66.35 157.49 66.38 157.38 66.42 157.28C66.46 157.18 66.52 157.08 66.59 157C66.67 156.92 66.75 156.84 66.85 156.79L74.2 152.64C74.26 152.6 74.33 152.58 74.4 152.55C74.47 152.53 74.54 152.52 74.61 152.51C74.68 152.51 74.76 152.51 74.83 152.52C74.9 152.53 74.97 152.54 75.04 152.57C75.11 152.6 75.17 152.63 75.23 152.67C75.29 152.71 75.35 152.75 75.4 152.8C75.45 152.86 75.5 152.91 75.54 152.97C75.57 153.04 75.61 153.1 75.63 153.17C75.8 153.68 75.97 154.19 76.16 154.69C76.34 155.19 76.53 155.69 76.73 156.19C76.94 156.68 77.15 157.18 77.37 157.67C77.59 158.15 77.81 158.64 78.05 159.12C78.14 159.18 78.23 159.24 78.33 159.29C78.42 159.35 78.51 159.4 78.61 159.46C78.7 159.51 78.8 159.56 78.9 159.61C78.99 159.66 79.09 159.7 79.19 159.75C80.44 160.38 81.52 160.92 81.49 161.94C81.48 162.08 81.45 162.22 81.4 162.35C81.35 162.49 81.28 162.61 81.19 162.72C81.1 162.83 80.99 162.93 80.87 163C80.76 163.08 80.63 163.14 80.49 163.18L78.49 164.03C79.49 166.03 81.03 170.19 78.73 171.83C78.26 172.1 77.78 172.34 77.28 172.55C76.78 172.75 76.27 172.92 75.75 173.06C75.22 173.19 74.69 173.3 74.16 173.36C73.62 173.42 73.08 173.45 72.54 173.44C72.37 173.44 72.2 173.44 72.04 173.43ZM68.54 158.17C68.77 159.42 69 161.82 67.7 163.27C66.89 164.17 68.11 168.51 69.52 170.65C69.62 170.74 69.72 170.83 69.83 170.91C69.95 170.98 70.06 171.05 70.19 171.11C70.31 171.16 70.44 171.21 70.57 171.24C70.7 171.28 70.83 171.3 70.97 171.31C73.08 171.71 76.35 171.17 77.7 170.21C78.7 169.53 77.52 166.12 76.37 164.02C76.34 163.96 76.31 163.89 76.29 163.83C76.27 163.76 76.25 163.69 76.25 163.62C76.24 163.55 76.24 163.48 76.25 163.41C76.26 163.34 76.28 163.28 76.3 163.21C76.32 163.14 76.35 163.08 76.39 163.02C76.42 162.96 76.47 162.91 76.51 162.86C76.56 162.81 76.61 162.76 76.67 162.72C76.73 162.68 76.79 162.65 76.85 162.62L78.85 161.78L78.39 161.54C78.23 161.48 78.08 161.4 77.92 161.33C77.77 161.25 77.62 161.16 77.48 161.07C77.33 160.98 77.19 160.89 77.06 160.78C76.92 160.68 76.79 160.57 76.66 160.46C76.07 159.81 74.96 156.94 74.25 154.97L68.54 158.17Z" />
		<path id="Layer" class="shp1" d="M90.36 131.92L90.36 131.92C90.23 131.92 90.1 131.89 89.98 131.84C89.86 131.79 89.75 131.72 89.65 131.63C89.56 131.53 89.49 131.42 89.44 131.3C89.39 131.18 89.36 131.05 89.36 130.92C89.36 126.92 89.45 120.31 89.36 119.66C89.33 119.53 89.33 119.4 89.35 119.28C89.38 119.15 89.43 119.03 89.49 118.92C89.56 118.81 89.65 118.71 89.76 118.64C89.86 118.56 89.98 118.51 90.11 118.48C90.24 118.45 90.38 118.44 90.51 118.47C90.64 118.49 90.76 118.54 90.88 118.61C90.99 118.68 91.09 118.77 91.16 118.88C91.24 118.99 91.29 119.12 91.32 119.25C91.45 119.82 91.41 125.92 91.32 130.95C91.32 131.08 91.29 131.2 91.24 131.31C91.19 131.43 91.12 131.53 91.03 131.62C90.94 131.71 90.84 131.79 90.72 131.84C90.61 131.89 90.49 131.92 90.36 131.92L90.36 131.92Z" />
		<path id="Layer" class="shp1" d="M126.5 129.72C126.37 129.72 126.24 129.69 126.12 129.64C126 129.59 125.89 129.52 125.79 129.43C125.7 129.33 125.63 129.22 125.58 129.1C125.53 128.98 125.5 128.85 125.5 128.72L125.5 120.77C125.5 120.5 125.61 120.25 125.79 120.06C125.98 119.88 126.23 119.77 126.5 119.77C126.77 119.77 127.02 119.88 127.21 120.06C127.39 120.25 127.5 120.5 127.5 120.77L127.5 128.72C127.5 128.85 127.47 128.98 127.42 129.1C127.37 129.22 127.3 129.33 127.21 129.43C127.11 129.52 127 129.59 126.88 129.64C126.76 129.69 126.63 129.72 126.5 129.72Z" />
		<path id="Layer" class="shp1" d="M122.49 128.16L116.49 128.16C116.22 128.16 115.97 128.05 115.78 127.87C115.6 127.68 115.49 127.43 115.49 127.16C115.49 126.89 115.6 126.64 115.78 126.45C115.97 126.27 116.22 126.16 116.49 126.16L122.49 126.16C122.76 126.16 123.01 126.27 123.2 126.45C123.38 126.64 123.49 126.89 123.49 127.16C123.49 127.43 123.38 127.68 123.2 127.87C123.01 128.05 122.76 128.16 122.49 128.16Z" />
		<path id="Layer" class="shp8" d="M245 220.82C245 220.82 237.06 204.65 238.17 193.72C238.17 193.72 244.55 196.61 247.62 205.13C252.32 218.13 251.23 220.83 251.23 220.83L245 220.82Z" />
		<path id="Layer" fill-rule="evenodd" class="shp1" d="M245 221.83C244.91 221.83 244.82 221.82 244.73 221.79C244.64 221.76 244.55 221.73 244.48 221.68C244.4 221.63 244.33 221.57 244.26 221.5C244.2 221.43 244.15 221.35 244.11 221.27C243.78 220.6 236.06 204.72 237.18 193.63C237.19 193.55 237.21 193.47 237.23 193.4C237.26 193.33 237.3 193.26 237.34 193.19C237.38 193.12 237.43 193.06 237.49 193.01C237.55 192.96 237.61 192.91 237.68 192.87C237.75 192.83 237.82 192.8 237.9 192.78C237.97 192.75 238.05 192.74 238.13 192.74C238.21 192.73 238.29 192.74 238.36 192.75C238.44 192.76 238.52 192.79 238.59 192.82C238.86 192.95 245.39 195.99 248.59 204.82C253.18 217.55 252.4 220.73 252.19 221.24C252.15 221.33 252.1 221.41 252.03 221.49C251.97 221.56 251.89 221.63 251.81 221.68C251.72 221.73 251.63 221.77 251.53 221.8C251.44 221.82 251.34 221.83 251.24 221.83L245 221.83ZM245.64 219.83L250.36 219.83C250.36 218.47 249.99 214.6 246.69 205.47C246.34 204.46 245.91 203.48 245.41 202.54C244.9 201.59 244.33 200.69 243.68 199.84C243.04 198.98 242.33 198.18 241.56 197.44C240.78 196.7 239.96 196.02 239.08 195.41C238.88 204.69 244.36 217.07 245.64 219.82L245.64 219.83Z" />
		<path id="Layer" class="shp8" d="M248.78 220C248.78 220 242.78 196.94 251.39 181.5C251.39 181.5 256.31 187.14 257.5 200.8C257.65 202.41 257.69 204.04 257.62 205.66C257.54 207.28 257.36 208.89 257.05 210.48C256.75 212.08 256.34 213.65 255.82 215.18C255.29 216.72 254.66 218.21 253.93 219.66L248.78 220Z" />
		<path id="Layer" fill-rule="evenodd" class="shp1" d="M248.78 221C248.67 221 248.55 220.99 248.45 220.95C248.34 220.92 248.24 220.87 248.15 220.8C248.06 220.73 247.98 220.65 247.92 220.56C247.85 220.46 247.81 220.36 247.78 220.25C247.52 219.13 247.28 218 247.06 216.87C246.85 215.74 246.66 214.61 246.5 213.47C246.34 212.33 246.2 211.19 246.09 210.04C245.98 208.9 245.9 207.75 245.84 206.6C245.45 199.44 245.94 189.2 250.48 181.02C250.52 180.95 250.57 180.88 250.62 180.83C250.67 180.77 250.74 180.72 250.8 180.67C250.87 180.63 250.94 180.59 251.02 180.56C251.09 180.54 251.17 180.52 251.25 180.51C251.33 180.5 251.41 180.5 251.49 180.51C251.57 180.52 251.65 180.55 251.72 180.57C251.8 180.6 251.87 180.64 251.93 180.69C252 180.74 252.06 180.79 252.11 180.85C252.32 181.09 257.27 186.85 258.46 200.71C258.62 202.38 258.67 204.05 258.59 205.72C258.52 207.39 258.32 209.06 258.01 210.7C257.7 212.34 257.27 213.96 256.73 215.55C256.18 217.13 255.53 218.67 254.77 220.16C254.73 220.23 254.68 220.3 254.62 220.36C254.57 220.41 254.5 220.47 254.43 220.51C254.36 220.55 254.29 220.59 254.21 220.61C254.13 220.64 254.05 220.65 253.97 220.66L248.81 221L248.78 221ZM251.51 183.43C245.14 196.67 248.66 214.92 249.56 218.95L253.31 218.7C253.96 217.32 254.52 215.9 254.99 214.45C255.46 212.99 255.82 211.51 256.09 210.01C256.36 208.51 256.53 206.99 256.6 205.46C256.67 203.94 256.63 202.41 256.5 200.89C255.67 191.34 252.94 185.79 251.51 183.47L251.51 183.43Z" />
		<path id="Layer" class="shp8" d="M251.35 219.32C251.35 219.32 253.2 203.92 265.64 193.88C265.64 193.88 269.31 205.35 259.03 220.68L251.35 219.32Z" />
		<path id="Layer" fill-rule="evenodd" class="shp1" d="M259 221.68L258.82 221.68L251.15 220.32C251.03 220.3 250.91 220.25 250.8 220.19C250.69 220.12 250.6 220.03 250.52 219.93C250.45 219.83 250.39 219.72 250.36 219.59C250.32 219.47 250.32 219.35 250.33 219.22C250.41 218.58 252.33 203.3 264.98 193.12C265.04 193.07 265.11 193.03 265.19 192.99C265.26 192.96 265.34 192.93 265.42 192.92C265.5 192.9 265.58 192.89 265.66 192.9C265.74 192.9 265.82 192.92 265.9 192.94C265.98 192.96 266.05 193 266.12 193.04C266.19 193.08 266.25 193.13 266.31 193.18C266.37 193.24 266.42 193.3 266.46 193.37C266.5 193.44 266.54 193.51 266.56 193.59C266.72 194.08 270.26 205.7 259.83 221.26C259.78 221.33 259.73 221.39 259.67 221.44C259.61 221.49 259.54 221.54 259.47 221.57C259.39 221.61 259.32 221.64 259.24 221.65C259.16 221.67 259.08 221.68 259 221.68ZM252.47 218.51L258.53 219.58C265.88 208.31 265.53 199.22 264.98 195.73C255.79 203.93 253.11 215.22 252.5 218.51L252.47 218.51Z" />
		<path id="Layer" class="shp4" d="M259.87 236.61L244.22 236.61L241.9 217.55L262.19 217.55L259.87 236.61L259.87 236.61Z" />
		<path id="Layer" fill-rule="evenodd" class="shp1" d="M259.87 237.61L244.22 237.61C244.1 237.61 243.98 237.59 243.86 237.55C243.75 237.5 243.64 237.44 243.55 237.36C243.46 237.28 243.38 237.18 243.33 237.08C243.27 236.97 243.23 236.85 243.22 236.73L240.91 217.67C240.9 217.6 240.9 217.53 240.91 217.46C240.91 217.39 240.93 217.32 240.95 217.25C240.97 217.19 241 217.12 241.03 217.06C241.06 217 241.1 216.94 241.15 216.89C241.2 216.84 241.25 216.79 241.31 216.75C241.36 216.7 241.42 216.67 241.49 216.64C241.55 216.61 241.62 216.59 241.69 216.57C241.76 216.56 241.83 216.55 241.9 216.55L262.19 216.55C262.26 216.55 262.33 216.56 262.4 216.57C262.47 216.59 262.54 216.61 262.6 216.64C262.67 216.67 262.73 216.7 262.78 216.75C262.84 216.79 262.89 216.84 262.94 216.89C262.99 216.94 263.03 217 263.06 217.06C263.09 217.12 263.12 217.19 263.14 217.25C263.16 217.32 263.18 217.39 263.18 217.46C263.19 217.53 263.19 217.6 263.18 217.67L260.87 236.73C260.86 236.85 260.82 236.97 260.76 237.08C260.71 237.18 260.63 237.28 260.54 237.36C260.45 237.44 260.34 237.5 260.23 237.55C260.11 237.59 259.99 237.61 259.87 237.61ZM245.1 235.61L259 235.61L261.07 218.55L243 218.55L245.1 235.61Z" />
	</g>
</svg>