<svg id="Capa_1" enable-background="new 0 0 512 512" height="512" viewBox="0 0 512 512" width="512" xmlns="http://www.w3.org/2000/svg"><g><path d="m391 61v300h-270v-300l30-31h210z" fill="#5ecef4"/><path d="m391 61v300h-135v-331h105z" fill="#4895ff"/><path d="m121 0h270v61h-270z" fill="#edf5ff"/><path d="m256 0h135v61h-135z" fill="#d5e8fe"/><path d="m271 151h30v30h-30z" fill="#5ecef4"/><path d="m211 151h30v30h-30z" fill="#99e6ff"/><path d="m271 91h30v30h-30z" fill="#5ecef4"/><g fill="#99e6ff"><path d="m211 91h30v30h-30z"/><path d="m151 91h30v30h-30z"/><path d="m151 151h30v30h-30z"/><path d="m151 211h30v30h-30z"/><path d="m211 211h30v30h-30z"/><path d="m211 271h30v60h-30z"/></g><path d="m271 271h30v60h-30z" fill="#5ecef4"/><path d="m271 211h30v30h-30z" fill="#5ecef4"/><path d="m331 211h30v30h-30z" fill="#5ecef4"/><path d="m331 151h30v30h-30z" fill="#5ecef4"/><path d="m331 91h30v30h-30z" fill="#5ecef4"/><path d="m151 271h30v60h-30z" fill="#99e6ff"/><path d="m331 271h30v60h-30z" fill="#5ecef4"/><path d="m512 301v151l-34.501 30h-446.3l-31.199-30v-151z" fill="#edf5ff"/><path d="m512 301v151l-34.501 30h-221.499v-181z" fill="#d5e8fe"/><path d="m512 452v60h-181l-30-30h-90l-30 30h-181v-60z" fill="#d5e8fe"/><path d="m512 452v60h-181l-30-30h-45v-30z" fill="#b5dbff"/><path d="m331 361v151h-30l-16.8-30-13.2 30h-30l-18.3-30-11.7 30h-30v-151z" fill="#3e4d59"/><path d="m331 361v151h-30l-16.8-30-13.2 30h-15v-151z" fill="#242833"/><path d="m211 391h30v121h-30z" fill="#99e6ff"/><path d="m271 391h30v121h-30z" fill="#5ecef4"/></g></svg>