<svg height="512pt" viewBox="0 -57 512 511" width="512pt" xmlns="http://www.w3.org/2000/svg"><path d="m450.144531.5h-380.113281c-22.582031 0-41.058594 18.476562-41.058594 41.058594v269.335937c0 22.582031 18.476563 41.058594 41.058594 41.058594h380.113281c22.582031 0 41.058594-18.476563 41.058594-41.058594v-269.335937c0-22.582032-18.476563-41.058594-41.058594-41.058594zm0 0" fill="#75798a"/><path d="m59.878906 310.894531v-269.335937c0-22.582032 18.476563-41.058594 41.058594-41.058594h-30.90625c-22.582031 0-41.058594 18.476562-41.058594 41.058594v269.335937c0 22.582031 18.476563 41.058594 41.058594 41.058594h30.90625c-22.582031 0-41.058594-18.476563-41.058594-41.058594zm0 0" fill="#7e8292"/><path d="m66.367188 74.476562v233.464844c0 3.554688 2.886718 6.441406 6.441406 6.441406h374.53125c3.558594 0 6.441406-2.886718 6.441406-6.441406v-233.464844zm0 0" fill="#e4eaf8"/><path d="m97.273438 307.941406v-233.464844h-30.90625v233.464844c0 3.554688 2.886718 6.441406 6.441406 6.441406h30.910156c-3.558594 0-6.445312-2.882812-6.445312-6.441406zm0 0" fill="#d8dce5"/><path d="m447.339844 37.667969h-334.335938v39.898437h340.777344v-33.457031c.003906-3.558594-2.882812-6.441406-6.441406-6.441406zm0 0" fill="#00c3ff"/><path d="m506.003906 351.953125h-500.007812c-3.3125 0-5.996094 2.683594-5.996094 5.996094v12.457031c0 15.304688 12.519531 27.820312 27.820312 27.820312h456.359376c15.300781 0 27.820312-12.515624 27.820312-27.820312v-12.457031c0-3.3125-2.683594-5.996094-5.996094-5.996094zm0 0" fill="#e4eaf8"/><path d="m484.179688 375.089844h-456.359376c-12.753906 0-23.570312-8.699219-26.816406-20.457032-.632812.949219-1.003906 2.089844-1.003906 3.316407v12.457031c0 15.304688 12.519531 27.820312 27.820312 27.820312h456.359376c15.300781 0 27.820312-12.515624 27.820312-27.820312v-12.457031c0-1.226563-.371094-2.367188-1.003906-3.316407-3.25 11.757813-14.0625 20.457032-26.816406 20.457032zm0 0" fill="#d8dce5"/><path d="m185.394531 351.953125v10.773437c0 6.800782 5.5625 12.363282 12.363281 12.363282h124.636719c6.796875 0 12.363281-5.5625 12.363281-12.363282v-10.773437zm0 0" fill="#c3c8d1"/><path d="m216.300781 362.726562v-10.773437h-30.90625v10.773437c0 6.800782 5.5625 12.363282 12.363281 12.363282h30.90625c-6.796874 0-12.363281-5.5625-12.363281-12.363282zm0 0" fill="#b8bdc4"/><path d="m115.0625 37.667969h-42.253906c-3.554688 0-6.441406 2.882812-6.441406 6.441406v33.457031h48.695312zm0 0" fill="#f25c5c"/><path d="m103.71875 37.667969h-30.910156c-3.554688 0-6.441406 2.882812-6.441406 6.441406v33.457031h30.90625v-33.457031c0-3.558594 2.886718-6.441406 6.445312-6.441406zm0 0" fill="#e54a4a"/><path d="m256 114.628906c-19.449219 0-35.363281 15.914063-35.363281 35.363282 0 19.453124 15.914062 35.367187 35.363281 35.367187s35.363281-15.914063 35.363281-35.367187c0-19.449219-15.914062-35.363282-35.363281-35.363282zm0 0" fill="#f5c5a9"/><path d="m252.3125 149.996094c0-13.765625 7.976562-25.75 19.527344-31.585938-4.773438-2.410156-10.152344-3.78125-15.839844-3.78125-19.449219 0-35.363281 15.917969-35.363281 35.367188 0 19.449218 15.914062 35.363281 35.363281 35.363281 5.6875 0 11.066406-1.367187 15.839844-3.777344-11.550782-5.839843-19.527344-17.824219-19.527344-31.585937zm0 0" fill="#eebda4"/><path d="m329.605469 149.996094c-15.339844 0-27.886719 12.546875-27.886719 27.886718 0 15.335938 12.546875 27.886719 27.886719 27.886719 15.335937 0 27.886719-12.550781 27.886719-27.886719 0-15.339843-12.550782-27.886718-27.886719-27.886718zm0 0" fill="#f5c5a9"/><path d="m182.96875 149.996094c-15.339844 0-27.890625 12.546875-27.890625 27.886718 0 15.335938 12.550781 27.886719 27.890625 27.886719 15.335938 0 27.886719-12.550781 27.886719-27.886719 0-15.339843-12.550781-27.886718-27.886719-27.886718zm0 0" fill="#f5c5a9"/><path d="m336.796875 177.882812c0-8.707031 4.046875-16.511718 10.347656-21.636718-4.800781-3.902344-10.90625-6.25-17.539062-6.25-15.339844 0-27.886719 12.546875-27.886719 27.886718 0 15.335938 12.546875 27.886719 27.886719 27.886719 6.632812 0 12.738281-2.347656 17.539062-6.253906-6.300781-5.125-10.347656-12.925781-10.347656-21.632813zm0 0" fill="#eebda4"/><path d="m190.160156 177.882812c0-8.707031 4.042969-16.511718 10.347656-21.636718-4.800781-3.902344-10.910156-6.25-17.542968-6.25-15.335938 0-27.886719 12.546875-27.886719 27.886718 0 15.335938 12.550781 27.886719 27.886719 27.886719 6.632812 0 12.742187-2.347656 17.542968-6.253906-6.304687-5.125-10.347656-12.925781-10.347656-21.632813zm0 0" fill="#eebda4"/><path d="m350.832031 205.769531h-37.488281c1.515625 3.742188 2.359375 7.824219 2.359375 12.09375v55.472657c0 4.714843-3.824219 8.535156-8.539063 8.535156h62.566407c3.71875 0 6.734375-3.011719 6.734375-6.730469v-43.738281c0-14.097656-11.535156-25.632813-25.632813-25.632813zm0 0" fill="#ffc850"/><path d="m347.640625 273.332031v-55.46875c0-4.136719-.414063-8.175781-1.171875-12.09375h-33.125c1.515625 3.742188 2.359375 7.824219 2.359375 12.09375v55.472657c0 4.714843-3.824219 8.535156-8.539063 8.535156h39.535157c.609375-2.75.941406-5.605469.941406-8.539063zm0 0" fill="#feb644"/><path d="m196.296875 273.332031v-55.46875c0-4.269531.84375-8.351562 2.359375-12.09375h-36.917969c-14.097656 0-25.632812 11.53125-25.632812 25.628907v43.738281c0 3.71875 3.015625 6.734375 6.734375 6.734375h61.996094c-4.714844 0-8.539063-3.820313-8.539063-8.539063zm0 0" fill="#ff80bd"/><path d="m166.140625 275.140625v-43.742187c0-14.09375 11.535156-25.628907 25.632813-25.628907h-30.035157c-14.097656 0-25.632812 11.535157-25.632812 25.628907v43.742187c0 3.71875 3.015625 6.730469 6.734375 6.730469h30.035156c-3.71875 0-6.734375-3.011719-6.734375-6.730469zm0 0" fill="#f964b2"/><path d="m284.226562 185.359375h-56.453124c-17.878907 0-32.503907 14.628906-32.503907 32.503906v55.472657c0 4.714843 3.824219 8.535156 8.539063 8.535156h104.386718c4.714844 0 8.539063-3.820313 8.539063-8.535156v-55.472657c-.003906-17.875-14.628906-32.503906-32.507813-32.503906zm0 0" fill="#00c3ff"/><g fill="#00aaf0"><path d="m224.320312 273.332031v-55.46875c0-17.878906 14.628907-32.503906 32.503907-32.503906h-29.050781c-17.878907 0-32.503907 14.625-32.503907 32.503906v55.46875c0 4.71875 3.820313 8.539063 8.539063 8.539063h29.050781c-4.714844 0-8.539063-3.820313-8.539063-8.539063zm0 0"/><path d="m232.046875 281.871094v-48.253906c0-4.269532-3.457031-7.726563-7.726563-7.726563-4.265624 0-7.726562 3.457031-7.726562 7.726563v48.253906zm0 0"/><path d="m295.40625 233.617188c0-4.269532-3.460938-7.726563-7.726562-7.726563-4.269532 0-7.726563 3.457031-7.726563 7.726563v48.253906h15.453125zm0 0"/></g></svg>