<svg id="Capa_1" enable-background="new 0 0 497 497" height="512" viewBox="0 0 497 497" width="512" xmlns="http://www.w3.org/2000/svg"><g id="_x3C_Group_x3E__8_"><path d="m496.872 315.473-489.161-7.498-4.084-216.402 11.369-13.039h109.961l13.273 1.999 16.719-1.999h123.617l8.871 1.999 6.125-1.999h74.981l7.498 1.999 7.498-1.999h103.335c5.521 0 9.997 4.476 9.997 9.997v226.942z" fill="#f7f9fa"/><path d="m19.995 300.477c-2.761 0-4.999-2.238-4.999-4.999v-216.944h-4.999c-5.521 0-9.997 4.476-9.997 9.997v216.944c0 5.521 4.476 9.997 9.997 9.997h114.96l14.996-1.999 14.996 1.999h341.922l-2.861-14.996h-339.06l-14.996 1.999-14.996-1.999h-104.963z" fill="#e9edf1"/><g><path d="m94.965 126.022h-33.694c-4.142 0-7.498-3.357-7.498-7.498s3.357-7.498 7.498-7.498h33.693c4.142 0 7.498 3.357 7.498 7.498s-3.356 7.498-7.497 7.498z" fill="#e9edf1"/></g><g><path d="m346.049 156.014h-29.992c-4.142 0-7.498-3.357-7.498-7.498s3.357-7.498 7.498-7.498h29.992c4.142 0 7.498 3.357 7.498 7.498s-3.356 7.498-7.498 7.498z" fill="#df646e"/></g><g><path d="m467.018 130.499h-60.984c-4.142 0-7.498-3.357-7.498-7.498s3.357-7.498 7.498-7.498h60.984c4.142 0 7.498 3.357 7.498 7.498s-3.356 7.498-7.498 7.498z" fill="#e9edf1"/></g><g><path d="m94.976 166.011h-64.984c-4.142 0-7.498-3.357-7.498-7.498s3.357-7.498 7.498-7.498h64.983c4.142 0 7.498 3.357 7.498 7.498s-3.356 7.498-7.497 7.498z" fill="#e9edf1"/></g><g><path d="m94.976 255.988h-64.984c-4.142 0-7.498-3.357-7.498-7.498s3.357-7.498 7.498-7.498h64.983c4.142 0 7.498 3.357 7.498 7.498s-3.356 7.498-7.497 7.498z" fill="#e9edf1"/></g><g><path d="m77.48 285.98h-29.992c-4.142 0-7.498-3.357-7.498-7.498s3.357-7.498 7.498-7.498h29.992c4.142 0 7.498 3.357 7.498 7.498s-3.356 7.498-7.498 7.498z" fill="#df646e"/></g><path d="m91.976 188.505h-58.984c-1.657 0-3 1.343-3 3v23.992c0 1.657 1.343 3 3 3h58.983c1.657 0 3-1.343 3-3v-23.992c.001-1.656-1.343-3-2.999-3z" fill="#bed9fd"/><path d="m149.887 310.07 5.063-9.593v-221.943h-29.993v221.943l4.127 8.444z" fill="#df646e"/><path d="m124.957 300.477h29.992v14.996h-29.992z" fill="#dc4955"/><path d="m278.567 78.534v32.492h-92.626c-4.142 0-7.498 3.357-7.498 7.498s3.357 7.498 7.498 7.498h92.626v14.996h-92.626c-4.142 0-7.498 3.357-7.498 7.498s3.357 7.498 7.498 7.498h92.626v2.499c0 4.141 3.357 7.498 7.498 7.498s7.498-3.357 7.498-7.498v-79.979z" fill="#e9edf1"/><path d="m376.042 166.011c4.142 0 7.498-3.357 7.498-7.498v-79.979h-14.996v79.979c0 4.141 3.356 7.498 7.498 7.498z" fill="#e9edf1"/><g><path d="m467.018 201.002h-281.077c-4.142 0-7.498-3.357-7.498-7.498s3.357-7.498 7.498-7.498h281.077c4.142 0 7.498 3.357 7.498 7.498s-3.356 7.498-7.498 7.498z" fill="#e9edf1"/></g><g><path d="m316.908 230.994h-130.967c-4.142 0-7.498-3.357-7.498-7.498s3.357-7.498 7.498-7.498h130.966c4.142 0 7.498 3.357 7.498 7.498s-3.356 7.498-7.497 7.498z" fill="#e9edf1"/></g><g><path d="m194.935 290.903c-1.03 0-2.076-.213-3.076-.664-3.775-1.701-5.457-6.141-3.756-9.916 10.162-22.558 18.041-31.126 27.225-29.584 6.86 1.154 9.883 7.721 12.09 12.515.289.626.654 1.421 1.033 2.191 2.284-2.832 5.93-6.867 12.035-7.828 6.903-1.086 11.799 2.534 15.038 4.929 2.158 1.595 3.55 2.576 4.906 2.649 1.211.076 5.708-.614 13.264-11.979 2.293-3.448 6.947-4.385 10.396-2.093 3.448 2.292 4.386 6.946 2.093 10.395-8.671 13.042-17.363 19.138-26.555 18.651-5.919-.317-10.022-3.35-13.018-5.564-1.868-1.381-3.146-2.276-3.795-2.174-.817.129-1.8 1.3-3.206 3.072-2.189 2.758-5.869 7.368-12.228 6.958-7.865-.512-11.307-7.989-13.584-12.937-.313-.68-.721-1.566-1.133-2.393-1.994 2.328-5.599 7.61-10.889 19.351-1.251 2.776-3.981 4.421-6.84 4.421z" fill="#bed9fd"/></g><g><path d="m497 320.992c0-53.834-43.641-97.475-97.475-97.475-25.207 0-48.18 9.568-65.484 25.271-19.651 17.833-29.992 43.577-29.992 72.204 0 53.834 41.641 95.475 95.475 95.475 24.71 0 47.272-7.195 64.452-22.349 20.251-17.861 33.024-44.002 33.024-73.126z" fill="#ffd064"/><path d="m412.522 406.47c-53.834 0-97.475-43.641-97.475-97.475 0-25.134 9.515-48.044 25.136-65.33-23.185 17.819-38.133 45.825-38.133 77.327 0 53.834 43.641 97.475 97.475 97.475 28.7 0 54.501-12.406 72.339-32.145-16.436 12.632-37.01 20.148-59.342 20.148z" fill="#ffc250"/><path d="m467.008 320.992c0-37.27-30.213-67.483-67.483-67.483-15.123 0-29.084 4.975-40.336 13.377-16.478 12.304-25.147 31.959-25.147 54.106 0 37.27 28.214 65.483 65.483 65.483 17.888 0 34.151-4.961 46.227-16.32 13.085-12.309 21.256-29.782 21.256-49.163z" fill="#ffc250"/><path d="m413.522 376.477c-37.27 0-67.483-30.213-67.483-67.483 0-17.176 6.428-32.843 16.994-44.755-18.638 12.009-30.991 32.931-30.991 56.751 0 37.27 30.213 67.483 67.483 67.483 20.094 0 38.126-8.792 50.488-22.728-10.523 6.782-23.042 10.732-36.491 10.732z" fill="#ebb044"/><path d="m407.708 313.52c-1.887-.667-3.589-1.173-5.09-1.62-4.113-1.224-5.606-1.731-6.99-3.381-.342-.407-.755-1.69-.408-3.398.18-.886.832-3.066 3.007-4.178 3.14-1.606 6.791 1.289 7.197 1.624 3.191 2.637 7.918 2.186 10.556-1.007 2.637-3.193 2.186-7.919-1.008-10.556-2.162-1.786-4.857-3.371-7.857-4.39v-1.716c0-4.141-3.357-7.498-7.498-7.498s-7.498 3.357-7.498 7.498v2.365c-.239.111-.479.206-.719.328-5.622 2.874-9.586 8.177-10.878 14.55-1.196 5.904.156 11.892 3.619 16.018 4.349 5.183 9.357 6.673 14.199 8.114 1.398.415 2.842.845 4.375 1.386 3.898 1.377 4.297 4.172 3.943 6.274-.507 3.018-3.05 6.28-7.435 6.308-5.157.037-6.368-.157-10.143-2.623-3.467-2.266-8.113-1.292-10.378 2.175-2.265 3.466-1.292 8.113 2.175 10.378 4.23 2.765 7.543 4.07 11.24 4.649v2.081c0 4.141 3.357 7.498 7.498 7.498s7.498-3.357 7.498-7.498v-3.083c8.007-2.975 13.128-10.226 14.333-17.402 1.713-10.188-3.808-19.389-13.738-22.896z" fill="#ffd064"/></g></g></svg>